<svg xmlns="http://www.w3.org/2000/svg" viewBox="0 0 16.97 10.6"><defs><style>.cls-1{fill:#fff;}.cls-2{fill:#231f20;}</style></defs><title>Fichier 1</title><g id="Calque_2" data-name="Calque 2"><g id="Calque_1-2" data-name="Calque 1"><g id="Calque_1-2-2" data-name="Calque 1-2"><circle class="cls-1" cx="5.3" cy="5.3" r="5.3"/><path class="cls-2" d="M5.31,10A4.65,4.65,0,0,1,1.93,8.62,4.61,4.61,0,0,1,.53,5.23a4.65,4.65,0,0,1,1.4-3.39A4.58,4.58,0,0,1,5.31.43h0a4.92,4.92,0,0,1,3.4,1.4L7.35,3.21a2.79,2.79,0,0,0-2-.85,2.7,2.7,0,0,0-2,.85,2.8,2.8,0,0,0,0,4,2.8,2.8,0,0,0,4,0L8.71,8.62A4.71,4.71,0,0,1,5.31,10Z"/><polygon class="cls-2" points="14.11 10.13 11.54 6.4 11.54 10.13 9.4 10.13 9.4 0.38 11.54 0.38 11.54 4.21 13.77 0.38 16.22 0.38 13.35 5.29 16.73 10.13 14.11 10.13"/><path class="cls-1" d="M16,.5,13.2,5.3,16.49,10H14.18L11.42,6v4H9.53V.5h1.89V4.68L13.84.5H16m.44-.25H13.7l-.08.12L11.67,3.75V.25H9.28v10h2.39V6.8L14,10.14l.08.11H17l-.28-.39L13.5,5.29,16.22.63l.22-.38Z"/></g></g></g></svg>