<svg xmlns="http://www.w3.org/2000/svg" width="237.882" height="238.382" viewBox="0 0 237.882 238.382">
  <g id="soo" transform="translate(0 0.5)">
    <path id="Tracé_112" data-name="Tracé 112" d="M118.656,0c65.532,0,118.656,52.983,118.656,118.34S184.188,236.68,118.656,236.68,0,183.7,0,118.34,53.124,0,118.656,0Z" transform="translate(0 0.702)" fill="rgba(245,245,245,0.89)"/>
    <g id="Groupe_84" data-name="Groupe 84" transform="translate(4.495 3.512)">
      <path id="Tracé_54" data-name="Tracé 54" d="M236.525,124.28c0,63.56-51.229,115.18-114.512,115.18S7.5,187.839,7.5,124.28,58.729,9.1,122.012,9.1,236.525,60.72,236.525,124.28Z" transform="translate(-7.5 -9.1)" fill="none" stroke="#eabc4a" stroke-width="1"/>
    </g>
    <g id="Groupe_85" data-name="Groupe 85" transform="translate(0.773)">
      <path id="Tracé_55" data-name="Tracé 55" d="M238.81,122.791c0,65.526-52.916,118.691-118.3,118.691S2.2,188.317,2.2,122.791,55.116,4.1,120.5,4.1C185.83,4.1,238.81,57.265,238.81,122.791Z" transform="translate(-2.2 -4.1)" fill="none" stroke="#eabc4a" stroke-width="1"/>
    </g>
    <g id="Groupe_86" data-name="Groupe 86" transform="translate(74.714 14.589)">
      <path id="Tracé_56" data-name="Tracé 56" d="M123.129,100.953a2.487,2.487,0,0,1,.7-2.739c.913-.983,1.9-1.9,2.809-2.879l2.6-2.6c3.652-3.582,7.234-7.164,10.886-10.745,3.02-3.02,6.04-5.97,9.06-8.99,3.02-2.95,6.04-5.9,8.99-8.849,2.739-2.739,5.408-5.548,8.077-8.358,2.528-2.6,5.057-5.267,7.585-7.866,2.739-2.879,5.548-5.759,8.287-8.709l5.127-5.338c1.966-2.107,4-4.214,5.97-6.321a10.055,10.055,0,0,1,2.95-2.177,3.528,3.528,0,0,1,.913-.351,3,3,0,0,1,3.863,3.793,7.491,7.491,0,0,1-1.4,2.669c-1.194,1.264-2.458,2.528-3.722,3.793-1.194,1.194-2.458,2.318-3.652,3.441-2.809,2.669-5.619,5.267-8.428,7.936-1.615,1.545-3.231,3.02-4.846,4.565-2.318,2.247-4.706,4.425-7.093,6.672l-6.953,6.532c-.562.562-1.124,1.053-1.686,1.615a.471.471,0,0,0-.211.562c.14,1.545.211,3.09.281,4.565a.98.98,0,0,1-.211.632c-2.879,2.95-5.759,5.97-8.709,8.849q-4.951,4.951-10.324,9.481a86.142,86.142,0,0,1-10.394,7.655,27.772,27.772,0,0,1-5.97,2.95,8.084,8.084,0,0,1-4.073.492C123.48,101.233,123.339,101.093,123.129,100.953Z" transform="translate(-122.961 -24.872)"/>
      <path id="Tracé_57" data-name="Tracé 57" d="M197.73,74.344c1.124,1.264,2.318,2.528,3.441,3.793,2.879,3.16,5.759,6.251,8.638,9.411l4.635,5.057a1.863,1.863,0,0,1,.351.421l-.421.421c-.7-.632-1.334-1.264-2.037-1.826-2.388-2.177-4.846-4.354-7.234-6.532l-6.953-6.321c-.281-.281-.632-.351-.843-.14a.664.664,0,0,0,.07.913c3.02,3.3,6.04,6.6,9.06,9.973,1.9,2.107,3.792,4.214,5.759,6.321l-.421.421a3.517,3.517,0,0,1-.562-.492c-3.582-3.3-7.234-6.6-10.816-9.973l-5.057-4.635a3.156,3.156,0,0,0-.843-.421c-.211-.07-.421.07-.351.281.07.281.07.632.281.843,2.739,3.16,5.478,6.251,8.287,9.411,2.107,2.388,4.284,4.846,6.391,7.234a.97.97,0,0,1,.211.281l-.421.421-1.334-1.334c-3.371-3.231-6.742-6.391-10.184-9.622-1.475-1.4-2.95-2.739-4.354-4.144a.573.573,0,1,0-.773.773c2.739,3.16,5.478,6.251,8.147,9.411,1.9,2.247,3.863,4.425,5.829,6.6a3.056,3.056,0,0,1,.421.492l-.351.351c-.562-.492-1.053-.983-1.615-1.475-2.88-2.669-5.689-5.338-8.568-8.006-1.264-1.194-2.458-2.458-3.722-3.652-1.615-1.615-3.3-3.231-4.916-4.846-.843-.843-1.615-1.686-2.388-2.6a7.106,7.106,0,0,1-1.264-6.532,1,1,0,0,0-.281-1.124l-6.04-6.04c-1.4-1.4-2.809-2.809-4.284-4.214-2.6-2.528-5.127-5.127-7.725-7.585-3.09-2.95-6.251-5.829-9.411-8.779-2.739-2.528-5.408-5.057-8.147-7.655-2.037-1.9-4-3.722-5.97-5.619a12.5,12.5,0,0,1-3.3-4.565,2.659,2.659,0,0,1,3.16-3.793,8.449,8.449,0,0,1,2.809,1.545,40.541,40.541,0,0,1,5.829,5.689c1.756,1.966,3.582,3.863,5.408,5.759,2.6,2.739,5.2,5.548,7.8,8.287,1.826,1.966,3.722,3.933,5.619,5.9,3.231,3.371,6.532,6.672,9.762,9.973,1.545,1.545,3.02,3.09,4.565,4.635,1.194,1.194,2.318,2.388,3.512,3.582a.434.434,0,0,0,.492.14c2.809-1.053,5.267-.281,7.655,1.334.421.281.843.632,1.264.913A9.656,9.656,0,0,0,197.73,74.344Z" transform="translate(-127.541 -24.952)"/>
    </g>
    <g id="Groupe_87" data-name="Groupe 87" transform="translate(61.087 112.862)">
      <path id="Tracé_58" data-name="Tracé 58" d="M161.571,164.8a136.3,136.3,0,0,1,31.955,3.512,66.137,66.137,0,0,1,16.926,6.18,24.606,24.606,0,0,1,6.461,4.916,9.444,9.444,0,0,1,2.528,7.093c-.7,15.521-7.655,27.531-20.3,36.38a61.114,61.114,0,0,1-25.564,9.973,74.662,74.662,0,0,1-20.929.421c-11.658-1.4-22.334-5.2-31.6-12.5a44.474,44.474,0,0,1-16.785-28.022,53.26,53.26,0,0,1-.562-8.217,7.791,7.791,0,0,1,2.247-4.916,26.1,26.1,0,0,1,7.936-5.829,78.029,78.029,0,0,1,18.963-6.251A146.349,146.349,0,0,1,161.571,164.8Zm-.773,37.363a164.655,164.655,0,0,0,17.628-.913,107.656,107.656,0,0,0,20.016-4.073,46.25,46.25,0,0,0,12.993-5.9,12.768,12.768,0,0,0,3.792-3.722,4.005,4.005,0,0,0,0-4.706,15.53,15.53,0,0,0-2.739-2.95,34.961,34.961,0,0,0-9.832-5.267c-10.113-3.792-20.578-5.408-31.253-6.11a141.607,141.607,0,0,0-21.14.14,120.093,120.093,0,0,0-22.825,3.792,59.188,59.188,0,0,0-13.7,5.408,16.444,16.444,0,0,0-5.478,4.565,4.239,4.239,0,0,0,0,5.408,7.516,7.516,0,0,0,.983,1.124,27.941,27.941,0,0,0,8.99,5.689,88.458,88.458,0,0,0,22.755,5.97A115.938,115.938,0,0,0,160.8,202.163Zm54.57-9.2c-.07,0-.14-.07-.211-.07-.281.211-.632.492-.913.7a47.238,47.238,0,0,1-13.906,6.742,118.508,118.508,0,0,1-28.865,5.057,150.19,150.19,0,0,1-27.531-.7,106,106,0,0,1-22.825-4.986,44.493,44.493,0,0,1-12.22-6.18c-.281-.211-.562-.421-.983-.773a9.121,9.121,0,0,0,.211,1.053,40.653,40.653,0,0,0,16.013,24.721c9.13,6.883,19.524,10.254,30.761,11.307a74.589,74.589,0,0,0,18.12-.562,59.109,59.109,0,0,0,23.036-8.568c8.428-5.478,14.608-12.712,17.839-22.334C214.455,196.685,214.877,194.789,215.368,192.963Z" transform="translate(-103.7 -164.8)"/>
    </g>
    <path id="Tracé_59" data-name="Tracé 59" d="M141.613,185.877a10.075,10.075,0,0,1-8.849-4.425,7.408,7.408,0,0,1-1.264-3.441,6.559,6.559,0,0,1,.773-2.88,8.316,8.316,0,0,1,1.826-2.458,3.2,3.2,0,0,1,1.615-.983c.211,0,.351.14.351.421a17.374,17.374,0,0,0,2.107,7.093q1.791,3.16,6.321,3.16a7.831,7.831,0,0,0,5.829-2.247,8.474,8.474,0,0,0,2.177-6.251,10.188,10.188,0,0,0-.913-4.425,22.037,22.037,0,0,0-3.02-4.565l-6.883-8.147a12.058,12.058,0,0,1-1.756-3.02,10.6,10.6,0,0,1-.632-3.863,14.668,14.668,0,0,1,1.686-6.883,12.939,12.939,0,0,1,4.916-5.2,13.993,13.993,0,0,1,7.515-2.037,10.309,10.309,0,0,1,5.759,1.475,4.566,4.566,0,0,1,2.247,4.073,9.147,9.147,0,0,1-1.686,4.706c-.421.7-.913,1.053-1.4,1.053a.76.76,0,0,1-.773-.492,15.84,15.84,0,0,1-.281-1.966c-.14-3.722-2.177-5.619-6.04-5.619a7.932,7.932,0,0,0-5.478,1.826,6.152,6.152,0,0,0-1.966,4.846,9.819,9.819,0,0,0,2.6,6.251l6.742,7.8c2.88,3.441,4.354,7.023,4.354,10.745a13.787,13.787,0,0,1-2.318,7.655,17.832,17.832,0,0,1-5.97,5.689A15.1,15.1,0,0,1,141.613,185.877Zm36.029,0c-4.706,0-7.936-1.826-9.692-5.408a26.787,26.787,0,0,1-2.528-11.518,41.027,41.027,0,0,1,3.09-14.959A37.114,37.114,0,0,1,177.08,141a16.775,16.775,0,0,1,12.01-5.267c4.284,0,7.374,1.686,9.271,4.986a24.661,24.661,0,0,1,2.879,12.431,39.077,39.077,0,0,1-3.371,16.083,32.041,32.041,0,0,1-8.779,12.08A17.4,17.4,0,0,1,177.642,185.877Zm2.879-3.933a9.88,9.88,0,0,0,7.725-3.933,26.566,26.566,0,0,0,5.127-10.043A44.988,44.988,0,0,0,195.2,155.4c0-4.635-.7-8.428-2.177-11.378q-2.107-4.425-6.321-4.425c-2.458,0-4.916,1.194-7.3,3.512a24.843,24.843,0,0,0-5.829,9.551,39.883,39.883,0,0,0-2.247,13.625c0,5.057.773,8.919,2.388,11.658A7.547,7.547,0,0,0,180.522,181.944Zm27.671-28.795c-.351,0-.562-.14-.562-.421a.607.607,0,0,1,.211-.421,5.124,5.124,0,0,1,.632-.7,18.749,18.749,0,0,0,3.371-4.354,7.876,7.876,0,0,0,1.124-4,4.638,4.638,0,0,0-1.4-3.582,2.425,2.425,0,0,1-.843-1.615,2.647,2.647,0,0,1,1.053-1.966,3.553,3.553,0,0,1,2.247-.983,2.539,2.539,0,0,1,2.037,1.194,5.928,5.928,0,0,1,.843,3.441,13.851,13.851,0,0,1-2.177,7.164,17.729,17.729,0,0,1-5.408,5.759A2.074,2.074,0,0,1,208.193,153.15Z" transform="translate(-51.426 -43.097)" fill="#f4cb65"/>
    <path id="Tracé_60" data-name="Tracé 60" d="M116.611,256.208a2.306,2.306,0,0,0,.07-2.528,3.687,3.687,0,0,0-1.826-2.107,2.785,2.785,0,0,0-1.4-.281,9.683,9.683,0,0,0-1.545.14,11.117,11.117,0,0,0-4.073,2.037,17.371,17.371,0,0,0-3.371,3.441,14.753,14.753,0,0,0-2.037,4.073,6.65,6.65,0,0,0-.351,2.6,4.81,4.81,0,0,0,.773,2.388,3.108,3.108,0,0,0,2.037,1.4,5.161,5.161,0,0,0,1.475,0c.773-.14,1.334-.211,1.545-.281a.186.186,0,0,1,.211.211c0,.14-.07.211-.14.211a11.389,11.389,0,0,0-1.475.211,3.12,3.12,0,0,1-1.615,0,3.714,3.714,0,0,1-2.318-1.545,4.709,4.709,0,0,1-.773-2.6,7.362,7.362,0,0,1,.351-2.739,14.681,14.681,0,0,1,2.177-4.144,16.589,16.589,0,0,1,3.441-3.582,10.828,10.828,0,0,1,4.214-2.107,6.147,6.147,0,0,1,1.686-.211,3.348,3.348,0,0,1,1.545.351,4.377,4.377,0,0,1,1.966,2.318c.492,1.194.492,2.177-.14,2.879-.07.07-.14.07-.281,0C116.541,256.348,116.541,256.278,116.611,256.208Z" transform="translate(-37.412 -77.539)" stroke="#000" stroke-miterlimit="10" stroke-width="2"/>
    <path id="Tracé_61" data-name="Tracé 61" d="M129.915,263.289h0a.174.174,0,0,1,.281-.07,11.088,11.088,0,0,1,2.388,2.037c1.194,1.615,1.124,3.863-.281,6.672a22.5,22.5,0,0,1-4.073,5.619A12.491,12.491,0,0,1,125,279.863a4.519,4.519,0,0,1-3.863.351,4.367,4.367,0,0,1-2.739-3.933,10.389,10.389,0,0,1,1.475-5.478,18.509,18.509,0,0,1,3.722-4.986,8.877,8.877,0,0,1,4.284-2.669A2.986,2.986,0,0,1,129.915,263.289Zm.632.562a2.762,2.762,0,0,1-.421-.14,2.764,2.764,0,0,0-.421-.141,2.763,2.763,0,0,1-.421-.14,1.235,1.235,0,0,0-.421-.07h-.421a1.2,1.2,0,0,0-.492.07,9.495,9.495,0,0,0-4.073,2.528,20.811,20.811,0,0,0-3.652,4.916,10.231,10.231,0,0,0-1.4,5.267,4.059,4.059,0,0,0,2.528,3.582,4.252,4.252,0,0,0,3.512-.351,12.429,12.429,0,0,0,3.09-2.177,20.274,20.274,0,0,0,4-5.548c1.334-2.669,1.4-4.776.281-6.251A9.479,9.479,0,0,0,130.547,263.85Z" transform="translate(-43.383 -81.178)" stroke="#000" stroke-miterlimit="10" stroke-width="2"/>
    <path id="Tracé_62" data-name="Tracé 62" d="M139.2,287.847a4.435,4.435,0,0,1,.562-1.826,3.972,3.972,0,0,1,.421-.843,5.618,5.618,0,0,0,.351-.773c.351-.913,1.334-3.512,2.88-7.725l1.475-3.933c.281-.7.492-1.334.773-1.9v-.07l.07-.07a.245.245,0,0,1,.07-.14.218.218,0,0,1,.14-.07c.07,0,.14,0,.14.07a.313.313,0,0,1,0,.351l-.07.07v.07a20.627,20.627,0,0,0-.492,4.565,2.419,2.419,0,0,0,.07.632,4.041,4.041,0,0,1,.14.7l.14,4.635c.07,1.966.14,3.371.14,4.073v.843l.07,1.194c0,.7-.07,1.053-.07,1.194l1.826-2.458c.562-.7,1.686-2.107,3.512-4.214,1.475-1.756,2.6-3.16,3.371-4.284.211-.281.492-.632.843-1.194.351-.492.632-.843.7-.983a.245.245,0,0,0,.07-.14c.07-.07.07-.141.211-.281.07-.07.14-.211.211-.281a2.676,2.676,0,0,1,.351-.421c.07-.07.07-.07.07-.14l.07-.07h.211c.07,0,.07.07.14.07v.281a1.186,1.186,0,0,1-.14.351l-.492,1.334-1.334,3.652L151.491,291.5c-.07.141-.14.141-.211.141-.14-.07-.14-.141-.14-.211l4.144-11.378,1.334-3.652.281-.843c-.07.07-.07.14-.14.211s-.07.14-.14.14a.069.069,0,0,1-.07.07l-.7.983a7.717,7.717,0,0,0-.843,1.194,47.923,47.923,0,0,1-3.441,4.284c-1.686,1.9-2.809,3.3-3.512,4.214l-1.966,2.6a.069.069,0,0,0-.07.07l-.07.07c-.07.14-.14.211-.281.211a.151.151,0,0,1-.14-.14v-.632l.07-1.264.07-1.334v-.773l-.14-4.144-.211-4.565a2.419,2.419,0,0,0-.07-.632,3.622,3.622,0,0,1-.14-.773,19.251,19.251,0,0,1,.281-3.371l-.211.632-1.475,3.933c-1.545,4.214-2.528,6.812-2.88,7.725a4.617,4.617,0,0,1-.421.843,3.973,3.973,0,0,0-.421.843,5.824,5.824,0,0,0-.562,1.686.186.186,0,0,1-.211.211C139.27,288.058,139.2,287.988,139.2,287.847Z" transform="translate(-51.007 -83.403)" fill="#f2994a" stroke="#000" stroke-miterlimit="10" stroke-width="2"/>
    <path id="Tracé_63" data-name="Tracé 63" d="M172.27,295.7c0-.07-.07-.07-.07-.14v-.843l.14-1.686c.07-.351.07-.7.14-1.194.07-.421.07-.843.14-1.124a3.779,3.779,0,0,1,.07-.562c0-.14.14-1.475.281-4v-.211q.105-1.37.211-2.528c.14-1.686.211-3.02.351-4,.07-.562.07-.983.14-1.334a2.484,2.484,0,0,1,.07-.421v-.14a.069.069,0,0,1,.07-.07c0-.07.07-.07.14-.14h.492a7.28,7.28,0,0,1,1.124.07,17.013,17.013,0,0,1,1.826.14,3.56,3.56,0,0,1,1.966,1.4,5.767,5.767,0,0,1,.913,2.458,5.488,5.488,0,0,1-.14,2.6,3.685,3.685,0,0,1-1.194,2.037,3.16,3.16,0,0,1-1.686.562,7.334,7.334,0,0,1-1.756,0h-.492a1.37,1.37,0,0,1-.562-.07c-.14,0-.351-.07-.562-.07-.211-.07-.421-.07-.562-.14-.14,2.388-.281,3.722-.281,3.863a1.976,1.976,0,0,1-.07.562c-.07.281-.07.632-.14,1.124-.07.421-.07.843-.14,1.194l-.14,1.686v.7a.132.132,0,0,1,0,.211A.174.174,0,0,1,172.27,295.7Zm1.826-18.049v.07a3.039,3.039,0,0,0-.07.351c-.07.351-.07.773-.14,1.334-.07.983-.211,2.318-.351,4-.07.7-.14,1.545-.211,2.458a1.3,1.3,0,0,0,.492.141,1.371,1.371,0,0,0,.492.07,1.745,1.745,0,0,1,.562.07c.211.07.421,0,.562.07a6.769,6.769,0,0,0,1.686,0,2.422,2.422,0,0,0,1.475-.492,3.69,3.69,0,0,0,1.124-1.826,5.829,5.829,0,0,0,.14-2.458,4.887,4.887,0,0,0-.913-2.318,3.177,3.177,0,0,0-1.756-1.264,7.056,7.056,0,0,0-1.756-.14,4.649,4.649,0,0,1-1.053-.07Z" transform="translate(-62.488 -85.427)" stroke="#000" stroke-miterlimit="10" stroke-width="2"/>
    <path id="Tracé_64" data-name="Tracé 64" d="M198.636,277.24a21.36,21.36,0,0,0-3.512.14,8.784,8.784,0,0,1,.7,3.16v1.9a9.992,9.992,0,0,0,.07,1.686c.07,1.4.281,3.441.562,6.04s.421,4.214.492,4.986c0,.14-.07.211-.14.211-.14,0-.211-.07-.211-.14-.07-.773-.211-2.388-.492-4.986s-.421-4.565-.562-5.97c0-.351,0-.913-.07-1.756v-1.826a7.518,7.518,0,0,0-.7-3.16c-1.756.281-2.88.421-3.231.421-.14,0-.843.07-.843-.07s.7-.281.843-.281q.527,0,3.16-.421l.07-.07a.132.132,0,0,1,.211,0,18.428,18.428,0,0,1,3.722-.211c.14,0,1.124,0,1.053.14C199.76,277.17,198.777,277.24,198.636,277.24Z" transform="translate(-69.167 -85.297)" stroke="#000" stroke-miterlimit="10" stroke-width="2"/>
    <path id="Tracé_65" data-name="Tracé 65" d="M214.322,271.552h0c-.07-.14,0-.281.07-.281a10.379,10.379,0,0,1,3.02-.773q3.055-.105,5.267,4a21.191,21.191,0,0,1,2.247,6.532,14.889,14.889,0,0,1,.07,3.933,4.722,4.722,0,0,1-1.9,3.371,4.235,4.235,0,0,1-4.776,0,10.56,10.56,0,0,1-3.652-4.354,20.133,20.133,0,0,1-1.966-5.9,9.764,9.764,0,0,1,.211-5.057A6.679,6.679,0,0,1,214.322,271.552Zm.843-.14c-.07.07-.211.14-.351.281-.211.14-.351.211-.351.281a1.922,1.922,0,0,1-.351.281c-.14.14-.281.211-.351.351l-.211.351c-.07.14-.211.281-.211.421a8.644,8.644,0,0,0-.211,4.776,19.059,19.059,0,0,0,1.966,5.829,10.058,10.058,0,0,0,3.512,4.144,3.916,3.916,0,0,0,4.425,0,4.356,4.356,0,0,0,1.756-3.09,9.892,9.892,0,0,0-.07-3.792,21.921,21.921,0,0,0-2.177-6.461c-1.475-2.6-3.09-3.933-4.916-3.792A5.348,5.348,0,0,0,215.165,271.412Z" transform="translate(-77.175 -83.402)" stroke="#000" stroke-miterlimit="10" stroke-width="2"/>
    <path id="Tracé_66" data-name="Tracé 66" d="M233.311,263.2a.186.186,0,0,1,.211.211,2.982,2.982,0,0,0,.351.843c.211.421.562.913.913,1.615q1.053,1.686,2.95,4.425l2.177,3.16c.562.843,1.194,1.686,1.9,2.669a14.245,14.245,0,0,1,1.124,1.615.2.2,0,0,1-.351.211c-.07-.141-.492-.7-1.124-1.615-.7-.913-1.264-1.826-1.9-2.669l-2.177-3.16q-1.9-2.739-2.95-4.425a18.652,18.652,0,0,0-.983-1.615,2.283,2.283,0,0,1-.351-.983C233.17,263.27,233.17,263.2,233.311,263.2Z" transform="translate(-84.436 -81.23)" stroke="#000" stroke-miterlimit="10" stroke-width="2"/>
    <path id="Tracé_67" data-name="Tracé 67" d="M256.758,268.567a5.835,5.835,0,0,1-.983-.913c-.351-.351-.632-.773-1.053-1.264a8.949,8.949,0,0,1-.773-1.053c-.7-.773-1.686-2.037-3.09-3.652s-2.388-2.809-3.02-3.652a1.924,1.924,0,0,1-.281-.351c-.14-.14-.351-.421-.562-.632a6.331,6.331,0,0,0-.632-.7c-.421-.421-.7-.773-.913-.983l-.281-.351c0-.07-.07-.07-.07-.14v-.211a2.607,2.607,0,0,1,.773-.913,11.055,11.055,0,0,1,1.334-1.053,12.133,12.133,0,0,1,1.475-.913,5.978,5.978,0,0,1,1.124-.492,3.6,3.6,0,0,1,2.037.351,7.482,7.482,0,0,1,1.966,1.334,6.3,6.3,0,0,1,1.475,1.9,2.983,2.983,0,0,1,.281,2.037,2.736,2.736,0,0,1-.7,1.194,8.46,8.46,0,0,1-1.124,1.194,43.34,43.34,0,0,1,4,1.686,7.462,7.462,0,0,1,1.194.7l1.194.773a9.059,9.059,0,0,0,2.458,1.124c.14,0,.14.07.14.211s-.07.14-.211.14a7.966,7.966,0,0,1-2.528-1.194l-1.194-.773c-.421-.281-.843-.492-1.124-.7-.983-.492-2.388-1.053-4.144-1.756a28.114,28.114,0,0,1-2.318,1.826c1.4,1.686,2.458,2.88,3.09,3.652.211.211.421.562.843,1.053.351.492.7.913.983,1.264a11.193,11.193,0,0,0,.913.913c.07.07.07.14,0,.281C256.9,268.637,256.829,268.637,256.758,268.567Zm-11.378-13.836c0,.07,0,.07.07.07l.281.351c.211.211.492.562.843.983a5.126,5.126,0,0,0,.632.7,5.3,5.3,0,0,0,.632.632c.14.14.281.281.281.351l2.739,3.231a16.722,16.722,0,0,0,2.318-1.756v-.07c0-.07.07-.14.211-.14a9.659,9.659,0,0,0,1.194-1.334,2.939,2.939,0,0,0,.632-1.053,2.3,2.3,0,0,0-.281-1.756,6.134,6.134,0,0,0-1.334-1.756,5.413,5.413,0,0,0-1.9-1.194,3.147,3.147,0,0,0-1.9-.281,2.113,2.113,0,0,0-.983.421c-.492.281-.913.562-1.475.913a11.058,11.058,0,0,0-1.334,1.053A2.535,2.535,0,0,0,245.381,254.731Z" transform="translate(-89.228 -77.677)" stroke="#000" stroke-miterlimit="10" stroke-width="2"/>
  </g>
</svg>
